<?xml version="1.0" encoding="utf-8"?>
<!-- Generator: Adobe Illustrator 16.0.0, SVG Export Plug-In . SVG Version: 6.00 Build 0)  -->
<!DOCTYPE svg PUBLIC "-//W3C//DTD SVG 1.1//EN" "http://www.w3.org/Graphics/SVG/1.1/DTD/svg11.dtd">
<svg version="1.1" id="Layer_1" xmlns="http://www.w3.org/2000/svg" xmlns:xlink="http://www.w3.org/1999/xlink" x="0px" y="0px"
	 width="185px" height="188px" viewBox="0 0 185 188" enable-background="new 0 0 185 188" xml:space="preserve">
<radialGradient id="SVGID_1_" cx="-64.5439" cy="745.998" r="20.1131" gradientTransform="matrix(0.498 0 0 0.498 49.9249 -321.6752)" gradientUnits="userSpaceOnUse">
	<stop  offset="0" style="stop-color:#FFCF4F"/>
	<stop  offset="1" style="stop-color:#F4C236"/>
</radialGradient>
<path fill="url(#SVGID_1_)" d="M9.068,61h6.791c1.607,0,3.604-1.128,4.432-2.511l5.72-9.521c0.677-1.396,0.653-3.426-0.119-4.713
	l-3.378-5.592L9.068,61z"/>
<radialGradient id="SVGID_2_" cx="-76.5947" cy="735.7852" r="27.6563" gradientTransform="matrix(0.498 0 0 0.498 49.9249 -321.6752)" gradientUnits="userSpaceOnUse">
	<stop  offset="0" style="stop-color:#08A960"/>
	<stop  offset="1" style="stop-color:#07914B"/>
</radialGradient>
<path fill="url(#SVGID_2_)" d="M16.368,33.514L1.266,58.763C0.683,60.011,1.289,61,2.787,61h6.281l13.446-22.335l-6.146-10.173
	C17.197,29.87,17.197,32.13,16.368,33.514"/>
<radialGradient id="SVGID_3_" cx="-67.1445" cy="696.1035" r="40.5378" gradientTransform="matrix(0.498 0 0 0.498 49.9249 -321.6752)" gradientUnits="userSpaceOnUse">
	<stop  offset="0" style="stop-color:#567FC0"/>
	<stop  offset="1" style="stop-color:#557FC0"/>
</radialGradient>
<path fill="url(#SVGID_3_)" d="M2.787,1C1.174,1,0.534,2.133,1.363,3.511l24.529,40.745c0.772,1.288,0.795,3.317,0.119,4.713
	l5.963-9.925L9.072,1H2.787z"/>
<radialGradient id="SVGID_4_" cx="-55.0801" cy="686.1387" r="33.0577" gradientTransform="matrix(0.498 0 0 0.498 49.9249 -321.6752)" gradientUnits="userSpaceOnUse">
	<stop  offset="0" style="stop-color:#E14C40"/>
	<stop  offset="1" style="stop-color:#CD392D"/>
</radialGradient>
<path fill="url(#SVGID_4_)" d="M9.072,1l22.903,38.045l3.321-5.53c0.83-1.385,0.83-3.645,0-5.023L20.292,3.511
	C19.463,2.133,17.467,1,15.86,1H9.072L9.072,1z"/>
<radialGradient id="SVGID_5_" cx="-64.5439" cy="872.5029" r="20.1136" gradientTransform="matrix(0.498 0 0 0.498 49.9249 -321.6752)" gradientUnits="userSpaceOnUse">
	<stop  offset="0" style="stop-color:#CCCCCC"/>
	<stop  offset="1" style="stop-color:#C0C0C0"/>
</radialGradient>
<path fill="url(#SVGID_5_)" d="M9.068,124h6.791c1.607,0,3.604-1.128,4.432-2.511l5.72-9.519c0.677-1.396,0.653-3.428-0.119-4.715
	l-3.378-5.592L9.068,124z"/>
<radialGradient id="SVGID_6_" cx="-76.5947" cy="862.291" r="27.6563" gradientTransform="matrix(0.498 0 0 0.498 49.9249 -321.6752)" gradientUnits="userSpaceOnUse">
	<stop  offset="0" style="stop-color:#A0A0A0"/>
	<stop  offset="1" style="stop-color:#7B7B7B"/>
</radialGradient>
<path fill="url(#SVGID_6_)" d="M16.368,96.514l-15.102,25.25C0.683,123.011,1.289,124,2.787,124h6.281l13.446-22.335l-6.146-10.173
	C17.197,92.87,17.197,95.13,16.368,96.514"/>
<radialGradient id="SVGID_7_" cx="-67.145" cy="822.6094" r="40.5379" gradientTransform="matrix(0.498 0 0 0.498 49.9249 -321.6752)" gradientUnits="userSpaceOnUse">
	<stop  offset="0" style="stop-color:#848484"/>
	<stop  offset="1" style="stop-color:#838383"/>
</radialGradient>
<path fill="url(#SVGID_7_)" d="M2.787,64c-1.613,0-2.254,1.133-1.424,2.511l24.529,40.745c0.772,1.288,0.795,3.317,0.119,4.713
	l5.963-9.925L9.072,64H2.787z"/>
<radialGradient id="SVGID_8_" cx="-55.0801" cy="812.6455" r="33.0572" gradientTransform="matrix(0.498 0 0 0.498 49.9249 -321.6752)" gradientUnits="userSpaceOnUse">
	<stop  offset="0" style="stop-color:#626262"/>
	<stop  offset="1" style="stop-color:#474747"/>
</radialGradient>
<path fill="url(#SVGID_8_)" d="M9.072,64l22.903,38.045l3.321-5.529c0.83-1.386,0.83-3.646,0-5.022l-15.004-24.98
	C19.463,65.133,17.467,64,15.86,64H9.072L9.072,64z"/>
<radialGradient id="SVGID_9_" cx="-64.5439" cy="999.0098" r="20.1131" gradientTransform="matrix(0.498 0 0 0.498 49.9249 -321.6752)" gradientUnits="userSpaceOnUse">
	<stop  offset="0" style="stop-color:#FFCF4F"/>
	<stop  offset="1" style="stop-color:#F4C236"/>
</radialGradient>
<path fill="url(#SVGID_9_)" d="M9.068,187h6.791c1.607,0,3.604-1.128,4.432-2.511l5.72-9.519c0.677-1.396,0.653-3.428-0.119-4.715
	l-3.378-5.592L9.068,187z"/>
<radialGradient id="SVGID_10_" cx="-76.5947" cy="988.7969" r="27.6563" gradientTransform="matrix(0.498 0 0 0.498 49.9249 -321.6752)" gradientUnits="userSpaceOnUse">
	<stop  offset="0" style="stop-color:#08A960"/>
	<stop  offset="1" style="stop-color:#07914B"/>
</radialGradient>
<path fill="url(#SVGID_10_)" d="M16.368,159.514l-15.102,25.25C0.683,186.011,1.289,187,2.787,187h6.281l13.446-22.335
	l-6.146-10.173C17.197,155.87,17.197,158.13,16.368,159.514"/>
<radialGradient id="SVGID_11_" cx="-67.145" cy="949.1152" r="40.5379" gradientTransform="matrix(0.498 0 0 0.498 49.9249 -321.6752)" gradientUnits="userSpaceOnUse">
	<stop  offset="0" style="stop-color:#567FC0"/>
	<stop  offset="1" style="stop-color:#557FC0"/>
</radialGradient>
<path fill="url(#SVGID_11_)" d="M2.787,127c-1.613,0-2.254,1.133-1.424,2.511l24.529,40.745c0.772,1.288,0.795,3.317,0.119,4.713
	l5.963-9.925L9.072,127H2.787z"/>
<radialGradient id="SVGID_12_" cx="-55.0801" cy="939.1514" r="33.0572" gradientTransform="matrix(0.498 0 0 0.498 49.9249 -321.6752)" gradientUnits="userSpaceOnUse">
	<stop  offset="0" style="stop-color:#E14C40"/>
	<stop  offset="1" style="stop-color:#CD392D"/>
</radialGradient>
<path fill="url(#SVGID_12_)" d="M9.072,127l22.903,38.045l3.321-5.529c0.83-1.386,0.83-3.646,0-5.022l-15.004-24.981
	C19.463,128.133,17.467,127,15.86,127H9.072L9.072,127z"/>
<g>
	<g>
		<path fill="#4E4E4E" d="M116.07,19.404c0,2.677-0.731,4.739-2.194,6.186c-1.461,1.447-3.517,2.172-6.165,2.172h-5.148V11.729
			h5.508c2.555,0,4.525,0.657,5.916,1.974C115.374,15.019,116.07,16.919,116.07,19.404z M111.607,19.559
			c0-1.469-0.289-2.559-0.865-3.268c-0.577-0.709-1.452-1.064-2.628-1.064h-1.253v8.983h0.959c1.307,0,2.265-0.383,2.875-1.146
			C111.302,22.298,111.607,21.13,111.607,19.559z M123.288,27.982c-2.054,0-3.647-0.55-4.785-1.651
			c-1.135-1.1-1.703-2.667-1.703-4.7c0-2.098,0.526-3.709,1.578-4.831s2.554-1.684,4.506-1.684c1.857,0,3.292,0.488,4.306,1.465
			c1.014,0.976,1.519,2.381,1.519,4.217v1.908H121.1c0.029,0.695,0.282,1.24,0.756,1.634c0.478,0.396,1.123,0.592,1.943,0.592
			c0.747,0,1.436-0.071,2.064-0.213c0.626-0.143,1.307-0.386,2.039-0.729v3.082c-0.666,0.344-1.356,0.581-2.066,0.713
			C125.123,27.917,124.275,27.982,123.288,27.982z M123.037,18.035c-0.5,0-0.919,0.159-1.256,0.477
			c-0.34,0.319-0.536,0.818-0.594,1.497h3.658c-0.017-0.599-0.185-1.078-0.507-1.436C124.016,18.213,123.581,18.035,123.037,18.035z
			 M133.009,27.763l-4.702-12.426h4.44l2.091,7.348l0.042,0.187l0.065,0.312l0.061,0.385l0.027,0.378h0.074
			c0-0.38,0.065-0.793,0.197-1.24l2.188-7.37h4.43l-4.703,12.426H133.009L133.009,27.763z M146.538,27.763h-4.233V11.729h9.404
			v3.476h-5.171v3.061h4.769v3.476h-4.769V27.763z M158.688,27.982c-2.055,0-3.646-0.55-4.785-1.651
			c-1.135-1.1-1.702-2.667-1.702-4.7c0-2.098,0.524-3.709,1.577-4.831s2.555-1.684,4.507-1.684c1.856,0,3.292,0.488,4.305,1.465
			c1.015,0.976,1.519,2.381,1.519,4.217v1.908H156.5c0.029,0.695,0.281,1.24,0.756,1.634c0.477,0.396,1.122,0.592,1.943,0.592
			c0.746,0,1.436-0.071,2.063-0.213c0.627-0.143,1.309-0.386,2.04-0.729v3.082c-0.667,0.344-1.356,0.581-2.065,0.713
			C160.521,27.917,159.674,27.982,158.688,27.982L158.688,27.982z M158.436,18.035c-0.5,0-0.918,0.159-1.256,0.477
			c-0.339,0.319-0.535,0.818-0.593,1.497h3.657c-0.016-0.599-0.184-1.078-0.506-1.436C159.414,18.213,158.98,18.035,158.436,18.035z
			 M174.699,23.945c0,1.331-0.45,2.336-1.35,3.016c-0.9,0.68-2.191,1.021-3.875,1.021c-0.914,0-1.709-0.049-2.384-0.148
			c-0.676-0.099-1.362-0.28-2.067-0.543v-3.433c0.66,0.293,1.384,0.534,2.172,0.724c0.787,0.19,1.488,0.285,2.104,0.285
			c0.925,0,1.384-0.211,1.384-0.635c0-0.22-0.129-0.416-0.388-0.587c-0.256-0.172-1.007-0.506-2.247-1.004
			c-1.132-0.468-1.923-1-2.373-1.596c-0.449-0.595-0.676-1.35-0.676-2.264c0-1.155,0.441-2.055,1.329-2.698
			c0.884-0.644,2.137-0.966,3.754-0.966c0.813,0,1.577,0.09,2.292,0.269c0.714,0.179,1.456,0.44,2.227,0.784l-1.154,2.764
			c-0.566-0.255-1.165-0.473-1.797-0.652c-0.629-0.179-1.146-0.269-1.545-0.269c-0.695,0-1.043,0.172-1.043,0.515
			c0,0.212,0.121,0.393,0.362,0.543c0.242,0.15,0.945,0.455,2.106,0.916c0.861,0.359,1.507,0.71,1.932,1.053
			c0.426,0.344,0.736,0.748,0.938,1.212C174.6,22.716,174.699,23.28,174.699,23.945z M181.766,24.594
			c0.572,0,1.258-0.143,2.055-0.428v3.126c-0.571,0.248-1.117,0.426-1.639,0.532c-0.518,0.106-1.125,0.159-1.822,0.159
			c-1.43,0-2.461-0.353-3.09-1.058c-0.633-0.706-0.949-1.79-0.949-3.252V18.55h-1.488v-1.744l1.895-1.349l1.1-2.61h2.785v2.489
			h3.025v3.214h-3.025v4.837C180.609,24.191,180.995,24.594,181.766,24.594z"/>
	</g>
	<g>
		<path fill="#4E4E4E" d="M55.729,18.75h6.921v8.643c-1.88,0.644-3.945,0.966-6.197,0.966c-2.472,0-4.383-0.717-5.731-2.151
			c-1.349-1.433-2.024-3.477-2.024-6.131c0-2.589,0.739-4.603,2.216-6.044c1.478-1.44,3.547-2.161,6.209-2.161
			c1.009,0,1.961,0.095,2.857,0.285c0.895,0.19,1.676,0.432,2.342,0.724l-1.371,3.4c-1.155-0.57-2.424-0.854-3.806-0.854
			c-1.265,0-2.243,0.411-2.934,1.234c-0.691,0.822-1.037,1.998-1.037,3.527c0,1.499,0.313,2.641,0.938,3.428
			c0.625,0.786,1.526,1.179,2.704,1.179c0.644,0,1.236-0.062,1.777-0.187v-2.512H55.73L55.729,18.75L55.729,18.75z M78.184,19.781
			c0,2.677-0.737,4.739-2.21,6.188c-1.474,1.447-3.545,2.172-6.215,2.172h-5.188V12.103h5.551c2.574,0,4.561,0.658,5.961,1.975
			C77.484,15.395,78.184,17.295,78.184,19.781z M73.687,19.936c0-1.47-0.291-2.56-0.872-3.268c-0.581-0.71-1.464-1.065-2.649-1.065
			h-1.262v8.984h0.965c1.317,0,2.281-0.382,2.896-1.146C73.38,22.677,73.687,21.507,73.687,19.936L73.687,19.936z M86.15,18.75h6.92
			v8.643c-1.879,0.644-3.944,0.966-6.196,0.966c-2.472,0-4.383-0.717-5.731-2.151c-1.349-1.433-2.024-3.477-2.024-6.131
			c0-2.589,0.739-4.603,2.216-6.044c1.478-1.44,3.547-2.161,6.209-2.161c1.009,0,1.961,0.095,2.857,0.285
			c0.895,0.19,1.676,0.432,2.342,0.724l-1.371,3.4c-1.155-0.57-2.424-0.854-3.806-0.854c-1.265,0-2.243,0.411-2.934,1.234
			c-0.691,0.822-1.037,1.998-1.037,3.527c0,1.499,0.313,2.641,0.938,3.428c0.625,0.786,1.526,1.179,2.704,1.179
			c0.644,0,1.236-0.062,1.777-0.187v-2.512H86.15V18.75L86.15,18.75z"/>
	</g>
	<g>
		<path fill="#4E4E4E" stroke="#4E4E4E" stroke-width="0.2167" stroke-miterlimit="10" d="M49.66,48.294V47.14l1.475-1.433
			c3.549-3.378,5.152-5.174,5.174-7.27c0-1.411-0.685-2.715-2.758-2.715c-1.261,0-2.309,0.641-2.951,1.175l-0.598-1.325
			c0.961-0.813,2.331-1.412,3.934-1.412c2.994,0,4.255,2.053,4.255,4.042c0,2.565-1.859,4.639-4.79,7.462L52.29,46.69v0.043h6.243
			v1.561H49.66z"/>
		<path fill="#4E4E4E" stroke="#4E4E4E" stroke-width="0.2167" stroke-miterlimit="10" d="M68.766,41.197
			c0,4.725-1.752,7.333-4.832,7.333c-2.715,0-4.554-2.544-4.597-7.141c0-4.661,2.01-7.228,4.832-7.228
			C67.099,34.161,68.766,36.771,68.766,41.197z M61.219,41.41c0,3.613,1.111,5.666,2.822,5.666c1.924,0,2.844-2.245,2.844-5.794
			c0-3.421-0.876-5.666-2.822-5.666C62.417,35.616,61.219,37.626,61.219,41.41z"/>
		<path fill="#4E4E4E" stroke="#4E4E4E" stroke-width="0.2167" stroke-miterlimit="10" d="M73.104,36.151h-0.043l-2.415,1.304
			l-0.364-1.433l3.036-1.625h1.604v13.897h-1.817L73.104,36.151L73.104,36.151z"/>
		<path fill="#4E4E4E" stroke="#4E4E4E" stroke-width="0.2167" stroke-miterlimit="10" d="M85.821,35.979h-5.302l-0.535,3.571
			c0.321-0.042,0.621-0.085,1.134-0.085c1.069,0,2.139,0.235,2.994,0.748c1.089,0.62,1.989,1.817,1.989,3.57
			c0,2.716-2.16,4.747-5.175,4.747c-1.518,0-2.801-0.427-3.464-0.855l0.47-1.433c0.578,0.343,1.71,0.771,2.972,0.771
			c1.775,0,3.293-1.154,3.293-3.015c-0.021-1.795-1.219-3.079-3.999-3.079c-0.79,0-1.411,0.085-1.924,0.15l0.897-6.671h6.65V35.979z
			"/>
		<path fill="#4E4E4E" stroke="#4E4E4E" stroke-width="0.2167" stroke-miterlimit="10" d="M95.396,48.294l-4.704-14.41h2.01
			l2.244,7.098c0.619,1.946,1.154,3.699,1.541,5.389h0.041c0.406-1.668,1.006-3.485,1.646-5.367l2.438-7.12h1.988l-5.151,14.41
			H95.396z"/>
		<path fill="#4E4E4E" stroke="#4E4E4E" stroke-width="0.2167" stroke-miterlimit="10" d="M105.854,35.038
			c0.021,0.642-0.449,1.155-1.199,1.155c-0.661,0-1.131-0.513-1.131-1.155c0-0.662,0.49-1.175,1.176-1.175
			C105.404,33.863,105.854,34.376,105.854,35.038z M103.76,48.294V37.946h1.881v10.349L103.76,48.294L103.76,48.294z"/>
		<path fill="#4E4E4E" stroke="#4E4E4E" stroke-width="0.2167" stroke-miterlimit="10" d="M109.811,43.463
			c0.043,2.544,1.668,3.591,3.549,3.591c1.348,0,2.16-0.234,2.865-0.534l0.319,1.346c-0.662,0.301-1.794,0.642-3.44,0.642
			c-3.188,0-5.09-2.095-5.09-5.217s1.84-5.58,4.854-5.58c3.376,0,4.274,2.972,4.274,4.875c0,0.384-0.043,0.684-0.063,0.876
			L109.811,43.463L109.811,43.463z M115.325,42.116c0.022-1.197-0.491-3.057-2.608-3.057c-1.9,0-2.734,1.753-2.886,3.057H115.325z"
			/>
		<path fill="#4E4E4E" stroke="#4E4E4E" stroke-width="0.2167" stroke-miterlimit="10" d="M121.741,34.974v2.972h2.694v1.433h-2.694
			v5.581c0,1.282,0.362,2.009,1.409,2.009c0.492,0,0.855-0.063,1.092-0.128l0.086,1.412c-0.363,0.15-0.939,0.256-1.669,0.256
			c-0.876,0-1.581-0.277-2.03-0.79c-0.533-0.557-0.727-1.477-0.727-2.695v-5.645h-1.604v-1.433h1.604v-2.479L121.741,34.974z"/>
		<path fill="#4E4E4E" stroke="#4E4E4E" stroke-width="0.2167" stroke-miterlimit="10" d="M126.553,40.747
			c0-1.069-0.023-1.945-0.087-2.801h1.667l0.108,1.71h0.043c0.512-0.983,1.71-1.945,3.421-1.945c1.432,0,3.656,0.855,3.656,4.404
			v6.179h-1.883v-5.965c0-1.667-0.619-3.057-2.394-3.057c-1.241,0-2.204,0.876-2.524,1.925c-0.086,0.234-0.129,0.556-0.129,0.876
			v6.221h-1.879V40.747L126.553,40.747z"/>
		<path fill="#4E4E4E" stroke="#4E4E4E" stroke-width="0.2167" stroke-miterlimit="10" d="M144.148,48.294L144,46.991h-0.064
			c-0.576,0.812-1.688,1.539-3.164,1.539c-2.097,0-3.164-1.476-3.164-2.972c0-2.501,2.225-3.87,6.222-3.849v-0.213
			c0-0.855-0.233-2.395-2.351-2.395c-0.963,0-1.969,0.299-2.694,0.77l-0.429-1.24c0.854-0.557,2.095-0.919,3.4-0.919
			c3.163,0,3.934,2.16,3.934,4.233v3.87c0,0.899,0.043,1.775,0.17,2.48L144.148,48.294L144.148,48.294z M143.872,43.013
			c-2.054-0.042-4.383,0.321-4.383,2.331c0,1.218,0.812,1.796,1.772,1.796c1.348,0,2.203-0.855,2.502-1.732
			c0.063-0.192,0.107-0.406,0.107-0.598L143.872,43.013L143.872,43.013z"/>
		<path fill="#4E4E4E" stroke="#4E4E4E" stroke-width="0.2167" stroke-miterlimit="10" d="M148.729,40.747
			c0-1.069-0.022-1.945-0.088-2.801h1.646l0.086,1.668h0.065c0.576-0.983,1.539-1.902,3.248-1.902c1.412,0,2.48,0.855,2.931,2.074
			h0.043c0.321-0.577,0.729-1.027,1.153-1.347c0.619-0.47,1.307-0.727,2.289-0.727c1.367,0,3.398,0.898,3.398,4.49v6.093h-1.839
			v-5.858c0-1.989-0.728-3.186-2.246-3.186c-1.067,0-1.901,0.792-2.224,1.71c-0.086,0.257-0.148,0.599-0.148,0.941v6.393h-1.838
			v-6.2c0-1.646-0.729-2.844-2.16-2.844c-1.176,0-2.031,0.941-2.331,1.882c-0.108,0.277-0.149,0.599-0.149,0.918v6.243h-1.836
			V40.747L148.729,40.747z"/>
	</g>
</g>
<g>
	<g>
		<path fill="#4E4E4E" d="M116.07,82.42c0,2.677-0.731,4.739-2.194,6.186c-1.461,1.447-3.517,2.172-6.165,2.172h-5.148V74.744h5.508
			c2.555,0,4.525,0.657,5.916,1.974C115.374,78.034,116.07,79.935,116.07,82.42z M111.607,82.574c0-1.469-0.289-2.559-0.865-3.268
			c-0.577-0.709-1.452-1.064-2.628-1.064h-1.253v8.983h0.959c1.307,0,2.265-0.383,2.875-1.146
			C111.302,85.314,111.607,84.146,111.607,82.574z M123.288,90.998c-2.054,0-3.647-0.55-4.785-1.651
			c-1.135-1.1-1.703-2.667-1.703-4.7c0-2.098,0.526-3.709,1.578-4.831s2.554-1.684,4.506-1.684c1.857,0,3.292,0.488,4.306,1.465
			c1.014,0.976,1.519,2.381,1.519,4.217v1.908H121.1c0.029,0.695,0.282,1.24,0.756,1.634c0.478,0.396,1.123,0.592,1.943,0.592
			c0.747,0,1.436-0.071,2.064-0.213c0.626-0.143,1.307-0.386,2.039-0.73v3.082c-0.666,0.344-1.356,0.581-2.066,0.713
			C125.123,90.932,124.275,90.998,123.288,90.998z M123.037,81.05c-0.5,0-0.919,0.159-1.256,0.477
			c-0.34,0.319-0.536,0.818-0.594,1.497h3.658c-0.017-0.599-0.185-1.078-0.507-1.436C124.016,81.229,123.581,81.05,123.037,81.05z
			 M133.009,90.778l-4.702-12.426h4.44l2.091,7.348l0.042,0.187l0.065,0.313l0.061,0.385l0.027,0.378h0.074
			c0-0.38,0.065-0.793,0.197-1.24l2.188-7.37h4.43l-4.703,12.426H133.009L133.009,90.778z M146.538,90.778h-4.233V74.744h9.404
			v3.476h-5.171v3.062h4.769v3.476h-4.769V90.778z M158.688,90.998c-2.055,0-3.646-0.55-4.785-1.651
			c-1.135-1.1-1.702-2.667-1.702-4.7c0-2.098,0.524-3.709,1.577-4.831s2.555-1.684,4.507-1.684c1.856,0,3.292,0.488,4.305,1.465
			c1.015,0.976,1.519,2.381,1.519,4.217v1.908H156.5c0.029,0.695,0.281,1.24,0.756,1.634c0.477,0.396,1.122,0.592,1.943,0.592
			c0.746,0,1.436-0.071,2.063-0.213c0.627-0.143,1.309-0.386,2.04-0.73v3.082c-0.667,0.344-1.356,0.581-2.065,0.713
			C160.521,90.932,159.674,90.998,158.688,90.998L158.688,90.998z M158.436,81.05c-0.5,0-0.918,0.159-1.256,0.477
			c-0.339,0.319-0.535,0.818-0.593,1.497h3.657c-0.016-0.599-0.184-1.078-0.506-1.436C159.414,81.229,158.98,81.05,158.436,81.05z
			 M174.699,86.961c0,1.331-0.45,2.336-1.35,3.016c-0.9,0.68-2.191,1.021-3.875,1.021c-0.914,0-1.709-0.049-2.384-0.148
			c-0.676-0.099-1.362-0.28-2.067-0.543v-3.433c0.66,0.293,1.384,0.534,2.172,0.724c0.787,0.19,1.488,0.285,2.104,0.285
			c0.925,0,1.384-0.211,1.384-0.635c0-0.22-0.129-0.416-0.388-0.587c-0.256-0.172-1.007-0.506-2.247-1.004
			c-1.132-0.468-1.923-1-2.373-1.596c-0.449-0.595-0.676-1.35-0.676-2.264c0-1.155,0.441-2.055,1.329-2.698
			c0.884-0.644,2.137-0.966,3.754-0.966c0.813,0,1.577,0.09,2.292,0.269c0.714,0.179,1.456,0.44,2.227,0.784l-1.154,2.764
			c-0.566-0.255-1.165-0.473-1.797-0.652c-0.629-0.179-1.146-0.269-1.545-0.269c-0.695,0-1.043,0.172-1.043,0.515
			c0,0.212,0.121,0.393,0.362,0.543c0.242,0.15,0.945,0.455,2.106,0.916c0.861,0.359,1.507,0.71,1.932,1.053
			c0.426,0.344,0.736,0.748,0.938,1.212C174.6,85.732,174.699,86.296,174.699,86.961z M181.766,87.609
			c0.572,0,1.258-0.143,2.055-0.428v3.126c-0.571,0.248-1.117,0.426-1.639,0.532c-0.518,0.106-1.125,0.159-1.822,0.159
			c-1.43,0-2.461-0.353-3.09-1.058c-0.633-0.706-0.949-1.79-0.949-3.252v-5.122h-1.488v-1.744l1.895-1.349l1.1-2.61h2.785v2.489
			h3.025v3.214h-3.025v4.837C180.609,87.207,180.995,87.609,181.766,87.609z"/>
	</g>
	<g>
		<path fill="#4E4E4E" d="M55.729,81.766h6.921v8.643c-1.88,0.644-3.945,0.966-6.197,0.966c-2.472,0-4.383-0.717-5.731-2.151
			c-1.349-1.433-2.024-3.477-2.024-6.131c0-2.589,0.739-4.603,2.216-6.044c1.478-1.44,3.547-2.161,6.209-2.161
			c1.009,0,1.961,0.095,2.857,0.285c0.895,0.19,1.676,0.432,2.342,0.724l-1.371,3.4c-1.155-0.57-2.424-0.854-3.806-0.854
			c-1.265,0-2.243,0.411-2.934,1.234c-0.691,0.822-1.037,1.998-1.037,3.527c0,1.499,0.313,2.641,0.938,3.428
			c0.625,0.786,1.526,1.179,2.704,1.179c0.644,0,1.236-0.062,1.777-0.187v-2.512H55.73L55.729,81.766L55.729,81.766z M78.184,82.797
			c0,2.677-0.737,4.739-2.21,6.188c-1.474,1.447-3.545,2.172-6.215,2.172h-5.188V75.118h5.551c2.574,0,4.561,0.658,5.961,1.975
			C77.484,78.41,78.184,80.311,78.184,82.797z M73.687,82.951c0-1.47-0.291-2.56-0.872-3.268c-0.581-0.71-1.464-1.065-2.649-1.065
			h-1.262v8.984h0.965c1.317,0,2.281-0.382,2.896-1.146C73.38,85.692,73.687,84.523,73.687,82.951L73.687,82.951z M86.15,81.766
			h6.92v8.643c-1.879,0.644-3.944,0.966-6.196,0.966c-2.472,0-4.383-0.717-5.731-2.151c-1.349-1.433-2.024-3.477-2.024-6.131
			c0-2.589,0.739-4.603,2.216-6.044c1.478-1.44,3.547-2.161,6.209-2.161c1.009,0,1.961,0.095,2.857,0.285
			c0.895,0.19,1.676,0.432,2.342,0.724l-1.371,3.4c-1.155-0.57-2.424-0.854-3.806-0.854c-1.265,0-2.243,0.411-2.934,1.234
			c-0.691,0.822-1.037,1.998-1.037,3.527c0,1.499,0.313,2.641,0.938,3.428c0.625,0.786,1.526,1.179,2.704,1.179
			c0.644,0,1.236-0.062,1.777-0.187v-2.512H86.15V81.766L86.15,81.766z"/>
	</g>
	<g>
		<path fill="#4E4E4E" stroke="#4E4E4E" stroke-width="0.2167" stroke-miterlimit="10" d="M49.66,111.311v-1.153l1.475-1.435
			c3.549-3.378,5.152-5.174,5.174-7.27c0-1.41-0.685-2.715-2.758-2.715c-1.261,0-2.309,0.642-2.951,1.176l-0.598-1.326
			c0.961-0.813,2.331-1.411,3.934-1.411c2.994,0,4.255,2.054,4.255,4.042c0,2.565-1.859,4.639-4.79,7.463l-1.111,1.025v0.043h6.243
			v1.561H49.66z"/>
		<path fill="#4E4E4E" stroke="#4E4E4E" stroke-width="0.2167" stroke-miterlimit="10" d="M68.766,104.213
			c0,4.725-1.752,7.332-4.832,7.332c-2.715,0-4.554-2.543-4.597-7.141c0-4.661,2.01-7.229,4.832-7.229
			C67.099,97.177,68.766,99.786,68.766,104.213z M61.219,104.426c0,3.613,1.111,5.666,2.822,5.666c1.924,0,2.844-2.244,2.844-5.794
			c0-3.421-0.876-5.666-2.822-5.666C62.417,98.632,61.219,100.643,61.219,104.426z"/>
		<path fill="#4E4E4E" stroke="#4E4E4E" stroke-width="0.2167" stroke-miterlimit="10" d="M73.104,99.166h-0.043l-2.415,1.305
			l-0.364-1.434l3.036-1.624h1.604v13.897h-1.817L73.104,99.166L73.104,99.166z"/>
		<path fill="#4E4E4E" stroke="#4E4E4E" stroke-width="0.2167" stroke-miterlimit="10" d="M85.821,98.994h-5.302l-0.535,3.572
			c0.321-0.043,0.621-0.086,1.134-0.086c1.069,0,2.139,0.233,2.994,0.748c1.089,0.619,1.989,1.815,1.989,3.569
			c0,2.716-2.16,4.746-5.175,4.746c-1.518,0-2.801-0.427-3.464-0.854l0.47-1.433c0.578,0.343,1.71,0.771,2.972,0.771
			c1.775,0,3.293-1.154,3.293-3.016c-0.021-1.796-1.219-3.078-3.999-3.078c-0.79,0-1.411,0.086-1.924,0.149l0.897-6.671h6.65V98.994
			z"/>
		<path fill="#4E4E4E" stroke="#4E4E4E" stroke-width="0.2167" stroke-miterlimit="10" d="M95.396,111.311L90.693,96.9h2.01
			l2.244,7.098c0.619,1.945,1.154,3.699,1.541,5.389h0.041c0.406-1.668,1.006-3.484,1.646-5.367l2.438-7.119h1.988l-5.151,14.41
			H95.396z"/>
		<path fill="#4E4E4E" stroke="#4E4E4E" stroke-width="0.2167" stroke-miterlimit="10" d="M105.854,98.055
			c0.021,0.641-0.449,1.154-1.199,1.154c-0.661,0-1.131-0.514-1.131-1.154c0-0.662,0.49-1.176,1.176-1.176
			C105.404,96.879,105.854,97.393,105.854,98.055z M103.76,111.311v-10.35h1.881v10.35H103.76z"/>
		<path fill="#4E4E4E" stroke="#4E4E4E" stroke-width="0.2167" stroke-miterlimit="10" d="M109.811,106.479
			c0.043,2.545,1.668,3.592,3.549,3.592c1.348,0,2.16-0.233,2.865-0.534l0.319,1.347c-0.662,0.301-1.794,0.643-3.44,0.643
			c-3.188,0-5.09-2.094-5.09-5.217c0-3.121,1.84-5.58,4.854-5.58c3.376,0,4.274,2.973,4.274,4.875c0,0.385-0.043,0.685-0.063,0.877
			h-7.269V106.479z M115.325,105.131c0.022-1.197-0.491-3.057-2.608-3.057c-1.9,0-2.734,1.754-2.886,3.057H115.325z"/>
		<path fill="#4E4E4E" stroke="#4E4E4E" stroke-width="0.2167" stroke-miterlimit="10" d="M121.741,97.99v2.971h2.694v1.434h-2.694
			v5.582c0,1.281,0.362,2.008,1.409,2.008c0.492,0,0.855-0.063,1.092-0.129l0.086,1.412c-0.363,0.15-0.939,0.256-1.669,0.256
			c-0.876,0-1.581-0.275-2.03-0.789c-0.533-0.558-0.727-1.477-0.727-2.694v-5.646h-1.604v-1.434h1.604v-2.479L121.741,97.99z"/>
		<path fill="#4E4E4E" stroke="#4E4E4E" stroke-width="0.2167" stroke-miterlimit="10" d="M126.553,103.764
			c0-1.07-0.023-1.945-0.087-2.803h1.667l0.108,1.711h0.043c0.512-0.982,1.71-1.945,3.421-1.945c1.432,0,3.656,0.855,3.656,4.404
			v6.18h-1.883v-5.966c0-1.667-0.619-3.058-2.394-3.058c-1.241,0-2.204,0.877-2.524,1.926c-0.086,0.234-0.129,0.557-0.129,0.876
			v6.222h-1.879V103.764L126.553,103.764z"/>
		<path fill="#4E4E4E" stroke="#4E4E4E" stroke-width="0.2167" stroke-miterlimit="10" d="M144.148,111.311L144,110.006h-0.064
			c-0.576,0.813-1.688,1.539-3.164,1.539c-2.097,0-3.164-1.475-3.164-2.972c0-2.501,2.225-3.87,6.222-3.849v-0.214
			c0-0.854-0.233-2.395-2.351-2.395c-0.963,0-1.969,0.299-2.694,0.77l-0.429-1.239c0.854-0.558,2.095-0.92,3.4-0.92
			c3.163,0,3.934,2.159,3.934,4.232v3.87c0,0.897,0.043,1.774,0.17,2.479h-1.711V111.311z M143.872,106.029
			c-2.054-0.043-4.383,0.32-4.383,2.33c0,1.219,0.812,1.797,1.772,1.797c1.348,0,2.203-0.855,2.502-1.732
			c0.063-0.191,0.107-0.406,0.107-0.598L143.872,106.029L143.872,106.029z"/>
		<path fill="#4E4E4E" stroke="#4E4E4E" stroke-width="0.2167" stroke-miterlimit="10" d="M148.729,103.764
			c0-1.07-0.022-1.945-0.088-2.803h1.646l0.086,1.668h0.065c0.576-0.982,1.539-1.902,3.248-1.902c1.412,0,2.48,0.855,2.931,2.074
			h0.043c0.321-0.576,0.729-1.027,1.153-1.348c0.619-0.471,1.307-0.727,2.289-0.727c1.367,0,3.398,0.897,3.398,4.489v6.095h-1.839
			v-5.858c0-1.989-0.728-3.187-2.246-3.187c-1.067,0-1.901,0.793-2.224,1.711c-0.086,0.256-0.148,0.599-0.148,0.94v6.394h-1.838
			v-6.201c0-1.646-0.729-2.844-2.16-2.844c-1.176,0-2.031,0.94-2.331,1.883c-0.108,0.276-0.149,0.6-0.149,0.918v6.244h-1.836
			V103.764L148.729,103.764z"/>
	</g>
</g>
<g>
	<g>
		<path fill="#E6E6E5" d="M116.07,145.037c0,2.678-0.731,4.738-2.194,6.186c-1.461,1.447-3.517,2.174-6.165,2.174h-5.148v-16.035
			h5.508c2.555,0,4.525,0.658,5.916,1.976C115.374,140.65,116.07,142.553,116.07,145.037z M111.607,145.191
			c0-1.469-0.289-2.56-0.865-3.269c-0.577-0.709-1.452-1.063-2.628-1.063h-1.253v8.981h0.959c1.307,0,2.265-0.383,2.875-1.146
			C111.302,147.932,111.607,146.764,111.607,145.191z M123.288,153.615c-2.054,0-3.647-0.551-4.785-1.65
			c-1.135-1.101-1.703-2.668-1.703-4.701c0-2.098,0.526-3.709,1.578-4.83s2.554-1.684,4.506-1.684c1.857,0,3.292,0.486,4.306,1.465
			c1.014,0.977,1.519,2.381,1.519,4.217v1.908H121.1c0.029,0.694,0.282,1.239,0.756,1.633c0.478,0.396,1.123,0.594,1.943,0.594
			c0.747,0,1.436-0.071,2.064-0.213c0.626-0.145,1.307-0.387,2.039-0.73v3.082c-0.666,0.345-1.356,0.581-2.066,0.714
			C125.123,153.549,124.275,153.615,123.288,153.615z M123.037,143.668c-0.5,0-0.919,0.158-1.256,0.477
			c-0.34,0.318-0.536,0.818-0.594,1.496h3.658c-0.017-0.598-0.185-1.076-0.507-1.436
			C124.016,143.846,123.581,143.668,123.037,143.668z M133.009,153.396l-4.702-12.428h4.44l2.091,7.35l0.042,0.187l0.065,0.313
			l0.061,0.385l0.027,0.378h0.074c0-0.38,0.065-0.793,0.197-1.239l2.188-7.371h4.43l-4.703,12.428h-4.21V153.396z M146.538,153.396
			h-4.233v-16.035h9.404v3.478h-5.171v3.062h4.769v3.477h-4.769V153.396z M158.688,153.615c-2.055,0-3.646-0.551-4.785-1.65
			c-1.135-1.101-1.702-2.668-1.702-4.701c0-2.098,0.524-3.709,1.577-4.83s2.555-1.684,4.507-1.684c1.856,0,3.292,0.486,4.305,1.465
			c1.015,0.977,1.519,2.381,1.519,4.217v1.908H156.5c0.029,0.694,0.281,1.239,0.756,1.633c0.477,0.396,1.122,0.594,1.943,0.594
			c0.746,0,1.436-0.071,2.063-0.213c0.627-0.145,1.309-0.387,2.04-0.73v3.082c-0.667,0.345-1.356,0.581-2.065,0.714
			C160.521,153.549,159.674,153.615,158.688,153.615L158.688,153.615z M158.436,143.668c-0.5,0-0.918,0.158-1.256,0.477
			c-0.339,0.318-0.535,0.818-0.593,1.496h3.657c-0.016-0.598-0.184-1.076-0.506-1.436
			C159.414,143.846,158.98,143.668,158.436,143.668z M174.699,149.578c0,1.331-0.45,2.336-1.35,3.016
			c-0.9,0.682-2.191,1.021-3.875,1.021c-0.914,0-1.709-0.049-2.384-0.148c-0.676-0.099-1.362-0.279-2.067-0.543v-3.433
			c0.66,0.293,1.384,0.534,2.172,0.724c0.787,0.19,1.488,0.285,2.104,0.285c0.925,0,1.384-0.211,1.384-0.635
			c0-0.221-0.129-0.416-0.388-0.588c-0.256-0.172-1.007-0.506-2.247-1.004c-1.132-0.467-1.923-1-2.373-1.597
			c-0.449-0.594-0.676-1.35-0.676-2.264c0-1.154,0.441-2.056,1.329-2.697c0.884-0.646,2.137-0.967,3.754-0.967
			c0.813,0,1.577,0.09,2.292,0.271c0.714,0.179,1.456,0.438,2.227,0.783l-1.154,2.764c-0.566-0.254-1.165-0.474-1.797-0.651
			c-0.629-0.179-1.146-0.269-1.545-0.269c-0.695,0-1.043,0.172-1.043,0.515c0,0.212,0.121,0.394,0.362,0.543
			c0.242,0.149,0.945,0.455,2.106,0.916c0.861,0.358,1.507,0.71,1.932,1.054c0.426,0.344,0.736,0.748,0.938,1.211
			C174.6,148.35,174.699,148.913,174.699,149.578z M181.766,150.227c0.572,0,1.258-0.143,2.055-0.428v3.125
			c-0.571,0.248-1.117,0.428-1.639,0.532c-0.518,0.106-1.125,0.159-1.822,0.159c-1.43,0-2.461-0.354-3.09-1.059
			c-0.633-0.705-0.949-1.789-0.949-3.252v-5.121h-1.488v-1.744l1.895-1.351l1.1-2.608h2.785v2.487h3.025v3.216h-3.025v4.836
			C180.609,149.824,180.995,150.227,181.766,150.227z"/>
	</g>
	<g>
		<path fill="#E6E6E5" d="M55.729,144.383h6.921v8.645c-1.88,0.644-3.945,0.966-6.197,0.966c-2.472,0-4.383-0.718-5.731-2.15
			c-1.349-1.434-2.024-3.478-2.024-6.131c0-2.59,0.739-4.604,2.216-6.045c1.478-1.438,3.547-2.16,6.209-2.16
			c1.009,0,1.961,0.095,2.857,0.284c0.895,0.189,1.676,0.434,2.342,0.725l-1.371,3.399c-1.155-0.57-2.424-0.854-3.806-0.854
			c-1.265,0-2.243,0.412-2.934,1.233c-0.691,0.822-1.037,1.998-1.037,3.526c0,1.5,0.313,2.642,0.938,3.429
			c0.625,0.786,1.526,1.18,2.704,1.18c0.644,0,1.236-0.063,1.777-0.188v-2.513H55.73L55.729,144.383L55.729,144.383z
			 M78.184,145.414c0,2.678-0.737,4.738-2.21,6.188c-1.474,1.447-3.545,2.172-6.215,2.172h-5.188v-16.037h5.551
			c2.574,0,4.561,0.658,5.961,1.976C77.484,141.027,78.184,142.928,78.184,145.414z M73.687,145.568
			c0-1.471-0.291-2.562-0.872-3.269c-0.581-0.711-1.464-1.065-2.649-1.065h-1.262v8.983h0.965c1.317,0,2.281-0.381,2.896-1.146
			C73.38,148.311,73.687,147.141,73.687,145.568L73.687,145.568z M86.15,144.383h6.92v8.645c-1.879,0.644-3.944,0.966-6.196,0.966
			c-2.472,0-4.383-0.718-5.731-2.15c-1.349-1.434-2.024-3.478-2.024-6.131c0-2.59,0.739-4.604,2.216-6.045
			c1.478-1.438,3.547-2.16,6.209-2.16c1.009,0,1.961,0.095,2.857,0.284c0.895,0.189,1.676,0.434,2.342,0.725l-1.371,3.399
			c-1.155-0.57-2.424-0.854-3.806-0.854c-1.265,0-2.243,0.412-2.934,1.233c-0.691,0.822-1.037,1.998-1.037,3.526
			c0,1.5,0.313,2.642,0.938,3.429c0.625,0.786,1.526,1.18,2.704,1.18c0.644,0,1.236-0.063,1.777-0.188v-2.513H86.15V144.383
			L86.15,144.383z"/>
	</g>
	<g>
		<path fill="#E6E6E5" d="M49.66,173.928v-1.154l1.475-1.434c3.549-3.378,5.152-5.174,5.174-7.27c0-1.41-0.685-2.715-2.758-2.715
			c-1.261,0-2.309,0.642-2.951,1.176l-0.598-1.326c0.961-0.813,2.331-1.411,3.934-1.411c2.994,0,4.255,2.054,4.255,4.042
			c0,2.564-1.859,4.639-4.79,7.462l-1.111,1.026v0.043h6.243v1.561H49.66z"/>
		<path fill="#E6E6E5" d="M68.766,166.83c0,4.725-1.752,7.332-4.832,7.332c-2.715,0-4.554-2.543-4.597-7.141
			c0-4.662,2.01-7.229,4.832-7.229C67.099,159.794,68.766,162.402,68.766,166.83z M61.219,167.043c0,3.613,1.111,5.666,2.822,5.666
			c1.924,0,2.844-2.245,2.844-5.794c0-3.421-0.876-5.666-2.822-5.666C62.417,161.249,61.219,163.259,61.219,167.043z"/>
		<path fill="#E6E6E5" d="M73.104,161.783h-0.043l-2.415,1.305l-0.364-1.434l3.036-1.625h1.604v13.897h-1.817L73.104,161.783
			L73.104,161.783z"/>
		<path fill="#E6E6E5" d="M85.821,161.611h-5.302l-0.535,3.572c0.321-0.043,0.621-0.086,1.134-0.086
			c1.069,0,2.139,0.233,2.994,0.748c1.089,0.619,1.989,1.815,1.989,3.569c0,2.716-2.16,4.746-5.175,4.746
			c-1.518,0-2.801-0.427-3.464-0.854l0.47-1.433c0.578,0.342,1.71,0.771,2.972,0.771c1.775,0,3.293-1.154,3.293-3.016
			c-0.021-1.796-1.219-3.079-3.999-3.079c-0.79,0-1.411,0.087-1.924,0.15l0.897-6.671h6.65V161.611z"/>
		<path fill="#E6E6E5" d="M95.396,173.928l-4.704-14.41h2.01l2.244,7.099c0.619,1.944,1.154,3.698,1.541,5.389h0.041
			c0.406-1.668,1.006-3.485,1.646-5.366l2.438-7.119h1.988l-5.151,14.41h-2.054V173.928z"/>
		<path fill="#E6E6E5" d="M105.854,160.671c0.021,0.642-0.449,1.155-1.199,1.155c-0.661,0-1.131-0.514-1.131-1.155
			c0-0.661,0.49-1.175,1.176-1.175C105.404,159.496,105.854,160.01,105.854,160.671z M103.76,173.928v-10.35h1.881v10.35H103.76z"/>
		<path fill="#E6E6E5" d="M109.811,169.096c0.043,2.545,1.668,3.592,3.549,3.592c1.348,0,2.16-0.233,2.865-0.535l0.319,1.348
			c-0.662,0.301-1.794,0.643-3.44,0.643c-3.188,0-5.09-2.095-5.09-5.218c0-3.12,1.84-5.58,4.854-5.58
			c3.376,0,4.274,2.974,4.274,4.876c0,0.385-0.043,0.684-0.063,0.877h-7.269V169.096z M115.325,167.748
			c0.022-1.197-0.491-3.057-2.608-3.057c-1.9,0-2.734,1.754-2.886,3.057H115.325z"/>
		<path fill="#E6E6E5" d="M121.741,160.607v2.971h2.694v1.434h-2.694v5.581c0,1.282,0.362,2.009,1.409,2.009
			c0.492,0,0.855-0.063,1.092-0.129l0.086,1.412c-0.363,0.15-0.939,0.256-1.669,0.256c-0.876,0-1.581-0.275-2.03-0.789
			c-0.533-0.558-0.727-1.477-0.727-2.694v-5.646h-1.604v-1.434h1.604V161.1L121.741,160.607z"/>
		<path fill="#E6E6E5" d="M126.553,166.38c0-1.069-0.023-1.944-0.087-2.802h1.667l0.108,1.711h0.043
			c0.512-0.982,1.71-1.945,3.421-1.945c1.432,0,3.656,0.855,3.656,4.404v6.18h-1.883v-5.966c0-1.667-0.619-3.058-2.394-3.058
			c-1.241,0-2.204,0.877-2.524,1.926c-0.086,0.234-0.129,0.556-0.129,0.876v6.222h-1.879V166.38L126.553,166.38z"/>
		<path fill="#E6E6E5" d="M144.148,173.928L144,172.623h-0.064c-0.576,0.813-1.688,1.539-3.164,1.539
			c-2.097,0-3.164-1.475-3.164-2.973c0-2.5,2.225-3.869,6.222-3.849v-0.213c0-0.854-0.233-2.396-2.351-2.396
			c-0.963,0-1.969,0.3-2.694,0.771l-0.429-1.239c0.854-0.558,2.095-0.921,3.4-0.921c3.163,0,3.934,2.16,3.934,4.233v3.869
			c0,0.898,0.043,1.775,0.17,2.48h-1.711V173.928z M143.872,168.646c-2.054-0.043-4.383,0.319-4.383,2.33
			c0,1.219,0.812,1.797,1.772,1.797c1.348,0,2.203-0.855,2.502-1.732c0.063-0.191,0.107-0.406,0.107-0.598L143.872,168.646
			L143.872,168.646z"/>
		<path fill="#E6E6E5" d="M148.729,166.38c0-1.069-0.022-1.944-0.088-2.802h1.646l0.086,1.668h0.065
			c0.576-0.982,1.539-1.902,3.248-1.902c1.412,0,2.48,0.855,2.931,2.074h0.043c0.321-0.577,0.729-1.027,1.153-1.348
			c0.619-0.471,1.307-0.728,2.289-0.728c1.367,0,3.398,0.898,3.398,4.49v6.094h-1.839v-5.858c0-1.988-0.728-3.186-2.246-3.186
			c-1.067,0-1.901,0.792-2.224,1.71c-0.086,0.257-0.148,0.599-0.148,0.941v6.393h-1.838v-6.2c0-1.646-0.729-2.844-2.16-2.844
			c-1.176,0-2.031,0.94-2.331,1.883c-0.108,0.276-0.149,0.6-0.149,0.918v6.243h-1.836V166.38L148.729,166.38z"/>
	</g>
</g>
</svg>
